<svg width="389" height="369" viewBox="0 0 389 369" fill="none" xmlns="http://www.w3.org/2000/svg">
<g clip-path="url(#clip0_19_1288)">
<path d="M272.364 69.4198C272.554 70.8016 273.252 72.051 274.308 72.9021C275.364 73.7533 276.695 74.139 278.018 73.9772C278.287 73.9398 278.552 73.8793 278.811 73.7961L289.47 88.7906L298.633 85.7992L281.912 66.9131C281.5 65.8146 280.753 64.8899 279.786 64.2835C278.82 63.677 277.689 63.4229 276.57 63.5607C275.935 63.6456 275.321 63.8608 274.765 64.1942C274.208 64.5275 273.72 64.9725 273.327 65.5037C272.935 66.0348 272.646 66.6418 272.478 67.2898C272.309 67.9379 272.264 68.6144 272.345 69.2807C272.351 69.3272 272.357 69.3735 272.364 69.4198Z" fill="#FFB6B6"/>
<path d="M347.633 136.389C347.633 136.389 307.831 116.922 297.763 104.488L279.722 81.013L288.872 73.1686L305.83 93.6387C305.675 97.9398 325.719 102.349 336.494 108.619L347.633 136.389Z" fill="#3F3D56"/>
<path d="M357.419 359.425L349.612 359.425L345.898 327.866L357.42 327.867L357.419 359.425Z" fill="#FFB6B6"/>
<path d="M357.694 367.96L333.686 367.959V367.641C333.686 365.044 334.671 362.553 336.423 360.717C338.176 358.88 340.552 357.848 343.031 357.848H343.031L347.416 354.362L355.598 357.849L357.694 357.849L357.694 367.96Z" fill="#2F2E41"/>
<path d="M338.806 352.207L331.204 354.065L320.745 324.217L331.966 321.474L338.806 352.207Z" fill="#FFB6B6"/>
<path d="M340.925 360.453L317.545 366.169L317.476 365.859C316.913 363.33 317.332 360.67 318.64 358.464C319.949 356.259 322.04 354.688 324.453 354.097L324.453 354.097L327.968 349.658L336.692 351.105L338.733 350.606L340.925 360.453Z" fill="#2F2E41"/>
<path d="M262.607 175.145H45.2997C43.9282 175.128 42.5631 174.947 41.2311 174.604C37.2554 173.603 33.7183 171.226 31.192 167.857C28.6658 164.487 27.2981 160.323 27.3103 156.038V78.6319C27.3178 73.5687 29.2416 68.7153 32.6595 65.1367C36.0774 61.5581 40.7103 59.5464 45.5417 59.543H262.607C265.533 59.5349 268.416 60.2746 271.008 61.6981C272.04 62.2589 273.016 62.9263 273.922 63.6903C276.084 65.4643 277.832 67.7326 279.03 70.3221C280.229 72.9116 280.847 75.7538 280.838 78.6319V156.038C280.833 161.104 278.91 165.961 275.492 169.542C272.075 173.124 267.44 175.139 262.607 175.145V175.145Z" fill="#150D9E"/>
<path d="M248.041 173.452C257.908 148.322 268.302 123.439 279.223 98.8047V140.571C271.65 152.417 263.253 163.535 253.515 173.452H248.041Z" fill="#F75D77"/>
<path d="M272.909 65.0093C253.386 101.715 232.959 137.863 211.627 173.452H207.913C229.6 137.305 250.383 100.553 270.261 63.1985C271.199 63.7082 272.086 64.3148 272.909 65.0093V65.0093Z" fill="#F75D77"/>
<path d="M129.642 105.083C116.884 128.723 102.805 151.552 87.4787 173.452H65.3394C79.8406 154.939 94.3525 136.425 108.875 117.911C113.041 112.58 117.563 106.995 123.812 104.829L129.642 105.083Z" fill="#F75D77"/>
<path d="M100.22 101.292C97.9104 103.814 95.6981 106.437 93.615 109.162C89.0289 114.949 84.5073 120.788 79.9697 126.609C77.1437 130.231 74.3178 133.852 71.5242 137.474C70.637 136.877 69.7948 136.209 69.005 135.477C64.5428 131.418 61.775 125.689 61.2948 119.518C60.8146 113.346 62.6601 107.223 66.436 102.461C70.2119 97.698 75.6177 94.6748 81.4949 94.0389C87.3722 93.4029 93.2534 95.2048 97.8782 99.0585C98.7116 99.7397 99.4944 100.487 100.22 101.292V101.292Z" fill="white"/>
<path d="M225.094 117.742L182.657 101.479L161.583 93.4063C154.72 90.7831 147.873 87.7878 140.784 85.8925C134.619 84.046 128.073 84.1342 121.955 86.1462C116.5 88.262 111.508 91.5081 107.277 95.6909C105.403 97.5016 103.589 99.3688 101.835 101.292C99.5253 103.814 97.313 106.437 95.2299 109.162C90.6438 114.949 86.1223 120.788 81.5846 126.609C78.7587 130.231 75.9327 133.852 73.1391 137.474C63.8054 149.439 54.5255 161.431 45.2995 173.452C44.0583 173.437 42.8229 173.273 41.6177 172.962C51.2421 160.439 60.9095 147.944 70.62 135.477C71.7342 134.022 72.8807 132.549 74.0111 131.094C78.7425 125.019 83.4794 118.949 88.2216 112.885C91.8873 108.197 95.5206 103.475 99.4931 99.0586C99.8484 98.6524 100.204 98.2632 100.575 97.857C108.633 89.1247 118.693 81.4078 130.74 81.2047C137.829 81.0863 144.676 83.4386 151.265 85.9262C158.354 88.617 165.427 91.3586 172.516 94.0832L215.244 110.465L225.934 114.56C227.823 115.271 227.016 118.486 225.094 117.742Z" fill="#F75D77"/>
<path d="M1.1244 87.2962V40.8251C1.12675 39.3747 1.67794 37.9846 2.65707 36.9596C3.63619 35.9346 4.96328 35.3585 6.34721 35.3577H63.8095V34.1793H6.34721C4.66516 34.1805 3.05225 34.8808 1.86232 36.1267C0.672398 37.3726 0.00264236 39.0623 0 40.8251V87.2962L1.1244 87.2962Z" fill="#3F3D56"/>
<path d="M5.11307 199.176C3.974 198.889 2.96055 198.208 2.23672 197.243C1.51288 196.278 1.12099 195.085 1.12443 193.857V147.392H2.80786e-05V193.857C-0.00421235 195.349 0.471953 196.798 1.35147 197.971C2.23099 199.144 3.46241 199.972 4.84652 200.32C5.31027 200.44 5.78553 200.503 6.263 200.509H63.8095V199.33H6.26986C5.87993 199.325 5.49183 199.273 5.11307 199.176V199.176Z" fill="#3F3D56"/>
<path d="M262.546 147.392V193.857C262.545 195.308 261.994 196.699 261.015 197.725C260.036 198.751 258.708 199.329 257.324 199.33H199.861V200.509H257.324C259.006 200.507 260.62 199.805 261.81 198.558C263 197.311 263.669 195.62 263.671 193.857V147.392H262.546Z" fill="#3F3D56"/>
<path d="M261.417 35.9752C261.712 36.1357 261.991 36.3267 262.25 36.5454C262.87 37.0532 263.371 37.7028 263.714 38.4445C264.058 39.1862 264.235 40.0004 264.233 40.8249V87.2961H265.357V40.825C265.361 39.823 265.145 38.8334 264.728 37.9319C264.311 37.0304 263.702 36.2407 262.949 35.6231C262.634 35.3571 262.294 35.1247 261.935 34.9295C261.033 34.4339 260.029 34.1764 259.01 34.1792H201.548V35.3576H259.01C259.849 35.3553 260.675 35.5673 261.417 35.9752V35.9752Z" fill="#3F3D56"/>
<path d="M364.184 206.194L315.609 208.745L312.235 225.831V241.05L310.165 297.715L324.604 341.898H336.18L335.004 336.301C335.647 335.36 336.007 334.241 336.042 333.084C336.076 331.928 335.781 330.787 335.196 329.807L334.267 328.251L332.756 321.572L329.382 296.827L343.829 241.05L345.686 342.782H358.262L360.106 340.574C361.131 339.348 361.741 337.802 361.841 336.176C361.942 334.55 361.528 332.934 360.664 331.58V329.113L359.179 320.394L373.039 212.158L364.184 206.194Z" fill="#2F2E41"/>
<path d="M343.195 100.127L327.35 100.978L325.55 108.848L314.043 118.077C311.442 120.164 309.449 122.971 308.289 126.182C307.13 129.393 306.85 132.88 307.482 136.248L313.861 170.253L313.446 191.536L314.366 200.252L314.296 201.571L312.888 202.78C311.929 203.602 311.266 204.742 311.008 206.011C310.75 207.281 310.911 208.605 311.467 209.765V209.765C311.467 209.765 304.523 225.497 314.57 226.298C324.617 227.098 330.832 216.149 340.431 220.406C350.031 224.662 358.601 225.161 361.233 220.406C363.864 215.651 371.871 216.759 372.833 212.605C373.796 208.451 368.922 203.749 368.267 197.557C367.612 191.365 365.925 162.495 365.925 162.495L370.642 134.152C371.31 130.139 370.714 126.008 368.945 122.381C367.176 118.754 364.33 115.828 360.835 114.045L345.734 106.34L343.195 100.127Z" fill="#3F3D56"/>
<path d="M260.673 188.869C261.31 187.428 262.459 186.304 263.875 185.737C265.291 185.169 266.862 185.204 268.254 185.832C268.535 185.964 268.805 186.121 269.062 186.3L285.344 173.594L294.403 179.984L270.303 194.862C269.512 195.919 268.409 196.672 267.167 197.003C265.925 197.334 264.614 197.225 263.437 196.693C262.77 196.383 262.168 195.939 261.665 195.385C261.162 194.832 260.768 194.18 260.506 193.467C260.243 192.754 260.117 191.994 260.135 191.23C260.153 190.466 260.314 189.713 260.609 189.014C260.63 188.966 260.651 188.917 260.673 188.869Z" fill="#FFB6B6"/>
<path d="M311.262 121.861C311.262 121.861 290.156 162.136 281.983 173.982L275.778 179.061L276.341 195.661L290.205 187.643C290.205 187.643 318.183 165.433 317.381 156.186C316.579 146.939 311.262 121.861 311.262 121.861Z" fill="#3F3D56"/>
<path d="M333.928 98.7979C342.197 98.7979 348.9 91.7729 348.9 83.1072C348.9 74.4415 342.197 67.4165 333.928 67.4165C325.659 67.4165 318.956 74.4415 318.956 83.1072C318.956 91.7729 325.659 98.7979 333.928 98.7979Z" fill="#FFB6B6"/>
<path d="M339.713 97.5117C335.417 97.364 335.027 96.1747 330.73 96.0269C329.362 95.9799 327.748 95.7834 327.086 94.5275C326.615 93.633 326.832 92.5066 327.247 91.582C327.737 90.6995 328.179 89.7885 328.57 88.8534C328.806 88.12 328.868 87.3375 328.75 86.5735C328.633 85.8095 328.34 85.087 327.896 84.4684C327.452 83.8497 326.872 83.3536 326.204 83.0229C325.537 82.6922 324.802 82.5368 324.064 82.5702C322.757 82.6294 321.529 83.2738 320.225 83.3915C318.437 83.5531 314.483 77.3657 315.306 75.6943C316.107 74.0674 317.72 72.84 317.974 71.0284C318.139 69.8436 317.673 68.6664 317.609 67.4707C317.514 65.698 321.803 69.6952 321.017 68.1219C319.091 64.2625 337.244 59.4779 340.233 64.3121C341.35 66.1189 343.34 65.9956 345.115 67.0807C346.277 67.7919 349.214 70.2454 349.881 71.7746C350.495 73.335 350.785 75.0142 350.732 76.7009C350.758 84.5453 349.618 91.7609 343.58 96.3977" fill="#2F2E41"/>
<path d="M265.07 364.347C261.01 364.722 256.922 364.142 253.103 362.649C249.284 361.156 245.832 358.788 242.999 355.718C239.293 351.624 236.751 346.355 234.292 341.259C233.576 339.776 232.836 338.243 232.083 336.773C231.244 335.171 230.882 333.342 231.043 331.522C231.205 329.702 231.883 327.974 232.989 326.562C234.05 325.149 235.49 324.102 237.123 323.555C238.757 323.008 240.509 322.987 242.155 323.493L242.514 323.601L245.743 336.807C246.225 334.837 247.259 330.399 247.912 326.051L247.967 325.687L248.288 325.837C251.66 327.401 254.831 329.403 257.726 331.797C262.853 336.107 267.024 341.536 269.947 347.706C272.871 353.876 274.477 360.64 274.655 367.526L274.663 367.937L265.07 364.347Z" fill="#F75D77"/>
<path d="M388.331 368.819L231.618 369C231.441 369 231.271 368.925 231.146 368.794C231.021 368.662 230.95 368.484 230.95 368.299C230.95 368.113 231.021 367.935 231.146 367.803C231.271 367.672 231.441 367.598 231.618 367.597L388.331 367.416C388.419 367.416 388.506 367.434 388.587 367.469C388.669 367.504 388.743 367.556 388.805 367.621C388.868 367.686 388.917 367.763 388.951 367.849C388.985 367.934 389.002 368.025 389.002 368.118C389.002 368.21 388.985 368.301 388.951 368.386C388.917 368.472 388.868 368.549 388.805 368.614C388.743 368.679 388.669 368.731 388.587 368.766C388.506 368.801 388.419 368.819 388.331 368.819Z" fill="#CACACA"/>
<path d="M145.618 242.734C154.243 242.734 161.236 235.407 161.236 226.367C161.236 217.328 154.243 210 145.618 210C136.992 210 130 217.328 130 226.367C130 235.407 136.992 242.734 145.618 242.734Z" fill="#F75D77"/>
<path d="M144 234.038C143.73 234.038 143.464 233.973 143.223 233.846C142.982 233.72 142.772 233.536 142.61 233.31L138.349 227.356C138.212 227.165 138.112 226.947 138.055 226.716C137.998 226.484 137.985 226.242 138.017 226.005C138.049 225.768 138.126 225.54 138.242 225.334C138.358 225.128 138.512 224.948 138.695 224.805C138.878 224.661 139.086 224.557 139.307 224.498C139.528 224.438 139.758 224.425 139.985 224.459C140.211 224.493 140.428 224.574 140.624 224.696C140.821 224.818 140.992 224.98 141.129 225.172L143.916 229.066L151.076 217.812C151.202 217.613 151.365 217.442 151.555 217.309C151.744 217.175 151.957 217.083 152.181 217.036C152.405 216.988 152.635 216.988 152.859 217.035C153.083 217.081 153.296 217.173 153.486 217.306C153.676 217.438 153.839 217.609 153.966 217.808C154.093 218.007 154.181 218.23 154.226 218.464C154.271 218.699 154.271 218.941 154.226 219.175C154.182 219.41 154.094 219.633 153.967 219.832L145.445 233.228C145.291 233.47 145.084 233.67 144.841 233.811C144.598 233.952 144.326 234.03 144.048 234.038C144.032 234.038 144.016 234.038 144 234.038Z" fill="white"/>
</g>
<defs>
<clipPath id="clip0_19_1288">
<rect width="389" height="369" fill="white"/>
</clipPath>
</defs>
</svg>
