<svg width="281" height="315" viewBox="0 0 281 315" fill="none" xmlns="http://www.w3.org/2000/svg">
<g clip-path="url(#clip0_19_1258)">
<path d="M23.2774 269.492L36.1487 282.244L25.9196 263.774C33.9787 248.047 47.1592 234.455 47.1592 234.455C47.1592 234.455 74.5042 262.648 74.5042 284.809C74.5042 306.97 62.2614 314.708 47.1592 314.708C32.0571 314.708 19.8144 306.97 19.8144 284.809C19.8144 279.876 21.1711 274.645 23.2774 269.492Z" fill="#F75D77"/>
<path d="M39.4588 282.934V284.027C39.5191 296.724 41.5091 306.631 45.4137 313.607C45.469 313.71 45.5293 313.807 45.5845 313.91L46.0217 313.623L46.4388 313.342C42.1071 305.809 40.5744 295.161 40.5191 284.086C40.5141 283.729 40.5091 283.367 40.5141 283.005C40.5292 278.316 40.7955 273.574 41.2226 268.966C41.2528 268.609 41.288 268.247 41.3231 267.885C41.9161 261.806 42.7704 255.998 43.6448 250.953C43.7051 250.596 43.7704 250.239 43.8358 249.888C45.3484 241.354 46.8911 235.173 47.2429 233.805C47.2831 233.637 47.3082 233.545 47.3132 233.524L46.8358 233.378L46.8308 233.372L46.3484 233.226C46.3434 233.248 46.2579 233.556 46.1172 234.13C45.5795 236.271 44.1825 242.084 42.8106 249.752C42.7503 250.099 42.685 250.455 42.6247 250.812C41.9111 254.906 41.2126 259.481 40.6598 264.283C40.5191 265.489 40.3935 266.679 40.2829 267.852C40.2427 268.214 40.2075 268.577 40.1774 268.934C39.715 273.914 39.4755 278.581 39.4588 282.934Z" fill="white"/>
<path d="M42.8106 249.752C43.1473 249.801 43.489 249.85 43.8358 249.888C44.7774 249.992 45.7234 250.044 46.67 250.044C50.7042 250.05 54.6883 249.082 58.3286 247.211C58.5396 247.497 58.7507 247.784 58.9668 248.076C55.1373 250.088 50.9313 251.131 46.67 251.126C45.6594 251.126 44.6497 251.068 43.6448 250.953C43.3031 250.915 42.9613 250.866 42.6247 250.812C39.8454 250.383 37.1428 249.503 34.6094 248.2C34.8254 247.903 35.0365 247.611 35.2425 247.324C37.6404 248.53 40.1906 249.349 42.8106 249.752Z" fill="white"/>
<path d="M40.2829 267.852C40.6297 267.874 40.9764 267.884 41.3232 267.884C41.4287 267.89 41.5393 267.89 41.6448 267.89C46.0161 267.89 50.3226 266.753 54.1972 264.575C58.0718 262.397 61.3995 259.243 63.8967 255.382C64.0977 255.701 64.2987 256.02 64.4946 256.344C61.8919 260.251 58.4616 263.434 54.488 265.63C50.5143 267.826 46.1117 268.971 41.6448 268.971C41.5041 268.971 41.3633 268.971 41.2226 268.966C40.8709 268.961 40.5241 268.95 40.1774 268.934C34.8119 268.638 29.6391 266.685 25.2775 263.31C25.4383 262.99 25.5991 262.671 25.7649 262.352C30.0039 265.667 35.0494 267.578 40.2829 267.852Z" fill="white"/>
<path d="M39.4589 282.934C39.8106 282.967 40.1624 282.988 40.5142 283.004C40.8911 283.021 41.268 283.032 41.6449 283.032C47.5188 283.024 53.2325 280.97 57.9305 277.176C62.6286 273.381 66.0582 268.052 67.7059 261.985C67.9321 262.423 68.1582 262.855 68.3743 263.293C66.5177 269.346 62.9359 274.616 58.1375 278.353C53.3391 282.091 47.5683 284.106 41.6449 284.113C41.268 284.113 40.8911 284.108 40.5192 284.086C40.1624 284.075 39.8106 284.054 39.4589 284.026C32.3536 283.428 25.7252 279.947 20.9156 274.287C21.0212 273.887 21.1418 273.492 21.2624 273.092C25.9078 278.794 32.4348 282.325 39.4589 282.934Z" fill="white"/>
<path d="M69.5635 68.1097L209.562 48.9027C209.939 48.8506 210.319 48.8241 210.699 48.8233C211.074 48.8226 211.448 48.848 211.82 48.8994C212.191 48.9508 212.558 49.0282 212.92 49.1312C213.286 49.2363 213.645 49.3667 213.996 49.5217C214.339 49.6733 214.673 49.8472 214.997 50.0425C215.325 50.2392 215.642 50.4565 215.946 50.6935C216.257 50.9365 216.555 51.1984 216.839 51.4778C217.131 51.7654 217.41 52.0696 217.672 52.3892C217.942 52.7183 218.195 53.062 218.432 53.419C218.671 53.7805 218.896 54.1565 219.105 54.5471C219.315 54.939 219.51 55.3465 219.689 55.7696C219.868 56.1927 220.032 56.6301 220.18 57.0819C220.333 57.5489 220.468 58.0262 220.583 58.514C220.698 59.0018 220.795 59.498 220.872 60.0028C220.948 60.507 221.006 61.0196 221.046 61.5403C221.087 62.0611 221.107 62.5881 221.107 63.1215C221.105 63.6544 221.085 64.1856 221.046 64.715C221.008 65.2445 220.95 65.7696 220.872 66.2903C220.794 66.8133 220.697 67.331 220.582 67.8435C220.467 68.356 220.332 68.8627 220.179 69.3635C220.031 69.8474 219.867 70.3202 219.688 70.7819C219.508 71.2441 219.314 71.6937 219.104 72.1307C218.894 72.5677 218.67 72.9921 218.431 73.404C218.192 73.8176 217.939 74.2155 217.671 74.5978C217.403 74.9802 217.125 75.3449 216.837 75.6921C216.549 76.0371 216.252 76.3626 215.945 76.6685C215.637 76.9745 215.321 77.2602 214.995 77.5258C214.674 77.7888 214.339 78.0338 213.994 78.2601C213.647 78.4883 213.288 78.6954 212.919 78.8805C212.561 79.0599 212.193 79.2166 211.818 79.3498C211.451 79.4803 211.077 79.5866 210.698 79.6681C210.322 79.7486 209.942 79.8041 209.56 79.8341L69.5623 90.8541C69.155 90.886 68.7457 90.8419 68.3524 90.7239C68.1523 90.664 67.957 90.5865 67.7687 90.4921C67.572 90.3937 67.3826 90.2794 67.2019 90.1504C67.0188 90.0196 66.8437 89.8761 66.678 89.7207C66.5041 89.5577 66.3393 89.3839 66.1844 89.2C66.0208 89.0057 65.8667 88.8023 65.7229 88.5907C65.5741 88.3728 65.4311 88.1407 65.294 87.8942C65.1569 87.6477 65.0272 87.3906 64.905 87.1228C64.7828 86.855 64.6685 86.5769 64.562 86.2883C64.4552 86.0001 64.3563 85.702 64.2656 85.3939C64.1749 85.0857 64.0922 84.7685 64.0176 84.4422C63.939 84.1045 63.8712 83.7608 63.8143 83.4111C63.7575 83.0613 63.7089 82.7063 63.6685 82.3461C63.6294 81.9859 63.6002 81.6209 63.5809 81.2512C63.5615 80.8814 63.5518 80.5076 63.5518 80.1296C63.553 79.752 63.5627 79.3762 63.5809 79.0021C63.599 78.6281 63.6282 78.2568 63.6685 77.8884C63.7077 77.5199 63.7563 77.1545 63.8143 76.7922C63.8724 76.4298 63.9402 76.0713 64.0176 75.7168C64.0922 75.3739 64.1749 75.0389 64.2656 74.7117C64.3555 74.3888 64.4543 74.0707 64.562 73.7574C64.6697 73.4441 64.784 73.1403 64.905 72.8461C65.0268 72.5523 65.1565 72.2672 65.294 71.9907C65.4315 71.7143 65.5744 71.4513 65.7229 71.2017C65.8713 70.9522 66.0251 70.7157 66.1844 70.4922C66.3437 70.2687 66.5082 70.0595 66.678 69.8647C66.8435 69.6737 67.0184 69.4925 67.2019 69.3218C67.3816 69.1545 67.5709 68.9995 67.7687 68.8576C67.9552 68.7237 68.1503 68.6041 68.3524 68.4996C68.5457 68.3998 68.746 68.3162 68.9513 68.2497C69.1514 68.1851 69.3562 68.1382 69.5635 68.1097" fill="#F75D77"/>
<path d="M69.5635 111.429L209.562 107.82C210.321 107.8 211.08 107.884 211.82 108.068C212.193 108.162 212.56 108.28 212.92 108.423C213.288 108.569 213.647 108.739 213.996 108.931C214.34 109.121 214.674 109.331 214.997 109.561C215.325 109.795 215.642 110.049 215.946 110.319C216.257 110.598 216.555 110.893 216.839 111.203C217.127 111.519 217.405 111.855 217.672 112.211C217.94 112.568 218.193 112.94 218.432 113.326C218.671 113.713 218.896 114.114 219.105 114.529C219.315 114.944 219.51 115.374 219.689 115.817C219.868 116.26 220.032 116.715 220.18 117.184C220.333 117.668 220.468 118.161 220.583 118.661C220.698 119.162 220.795 119.669 220.872 120.182C220.948 120.695 221.006 121.215 221.046 121.74C221.087 122.265 221.107 122.794 221.107 123.327C221.105 123.861 221.085 124.39 221.046 124.915C221.008 125.439 220.95 125.958 220.872 126.471C220.794 126.981 220.697 127.486 220.582 127.986C220.467 128.485 220.332 128.977 220.179 129.461C220.031 129.93 219.867 130.386 219.688 130.828C219.508 131.27 219.314 131.697 219.104 132.111C218.894 132.525 218.67 132.925 218.431 133.31C218.192 133.693 217.939 134.062 217.671 134.416C217.403 134.771 217.125 135.105 216.837 135.418C216.554 135.727 216.256 136.02 215.945 136.296C215.641 136.565 215.324 136.816 214.995 137.048C214.673 137.276 214.339 137.484 213.994 137.671C213.646 137.861 213.286 138.028 212.919 138.172C212.559 138.312 212.192 138.428 211.818 138.519C211.449 138.609 211.075 138.675 210.698 138.714C210.32 138.753 209.94 138.766 209.56 138.754L69.5635 134.17C69.3578 134.164 69.153 134.138 68.9513 134.094C68.7473 134.05 68.547 133.987 68.3524 133.907C68.1511 133.825 67.956 133.725 67.7687 133.611C67.5714 133.49 67.382 133.354 67.2019 133.206C67.0185 133.054 66.8436 132.891 66.678 132.717C66.5041 132.535 66.3394 132.343 66.1844 132.142C66.0255 131.937 65.8717 131.717 65.7229 131.481C65.5741 131.246 65.4311 130.998 65.294 130.737C65.1569 130.475 65.0272 130.204 64.905 129.922C64.7828 129.641 64.6685 129.35 64.562 129.05C64.4552 128.745 64.3564 128.434 64.2656 128.119C64.1749 127.803 64.0922 127.477 64.0176 127.142C63.939 126.799 63.8712 126.45 63.8143 126.093C63.7575 125.737 63.7089 125.377 63.6686 125.012C63.6295 124.646 63.6002 124.277 63.5809 123.906C63.5615 123.534 63.5518 123.159 63.5518 122.781C63.553 122.406 63.5627 122.032 63.5809 121.658C63.599 121.285 63.6283 120.916 63.6686 120.552C63.7077 120.186 63.7563 119.826 63.8143 119.472C63.8724 119.117 63.9402 118.766 64.0176 118.419C64.0926 118.084 64.1755 117.758 64.2662 117.44C64.357 117.123 64.4556 116.814 64.562 116.515C64.6681 116.215 64.7822 115.925 64.9044 115.644C65.0266 115.364 65.1563 115.093 65.2934 114.833C65.4309 114.572 65.5739 114.324 65.7223 114.09C65.8707 113.857 66.0245 113.637 66.1838 113.432C66.3387 113.232 66.5035 113.041 66.6774 112.86C66.843 112.688 67.0179 112.526 67.2013 112.376C67.3814 112.228 67.5708 112.094 67.7681 111.975C67.9556 111.862 68.151 111.764 68.3524 111.683C68.547 111.605 68.7473 111.544 68.9513 111.5C69.1531 111.458 69.3579 111.434 69.5635 111.429Z" fill="#FFB6B6"/>
<path d="M69.5635 152.04L209.562 163.058C209.943 163.088 210.323 163.143 210.699 163.224C211.078 163.305 211.452 163.412 211.82 163.542C212.195 163.675 212.562 163.832 212.92 164.012C213.289 164.197 213.648 164.404 213.996 164.632C214.341 164.858 214.675 165.103 214.997 165.366C215.323 165.634 215.639 165.92 215.946 166.224C216.253 166.529 216.55 166.854 216.839 167.2C217.127 167.546 217.405 167.911 217.672 168.294C217.94 168.679 218.193 169.078 218.432 169.489C218.671 169.901 218.896 170.326 219.105 170.763C219.315 171.2 219.51 171.65 219.689 172.111C219.868 172.573 220.032 173.046 220.18 173.53C220.333 174.03 220.468 174.536 220.583 175.05C220.698 175.563 220.795 176.08 220.872 176.601C220.948 177.123 221.006 177.648 221.046 178.177C221.087 178.706 221.107 179.237 221.107 179.771C221.105 180.304 221.085 180.831 221.046 181.352C221.008 181.872 220.95 182.385 220.872 182.89C220.794 183.396 220.697 183.892 220.582 184.379C220.467 184.866 220.332 185.344 220.179 185.811C220.031 186.264 219.867 186.701 219.688 187.124C219.508 187.547 219.314 187.954 219.104 188.346C218.894 188.738 218.67 189.114 218.431 189.474C218.194 189.831 217.94 190.175 217.671 190.504C217.408 190.824 217.13 191.128 216.837 191.415C216.554 191.695 216.256 191.957 215.945 192.2C215.64 192.437 215.323 192.654 214.995 192.851C214.672 193.046 214.338 193.22 213.994 193.372C213.644 193.527 213.285 193.657 212.919 193.762C212.557 193.865 212.19 193.943 211.818 193.994C211.447 194.045 211.072 194.071 210.698 194.07C210.317 194.069 209.937 194.043 209.56 193.991L69.5635 174.788C69.3562 174.76 69.1514 174.713 68.9513 174.648C68.746 174.582 68.5457 174.498 68.3524 174.398C68.1503 174.294 67.9552 174.174 67.7687 174.04C67.5709 173.898 67.3816 173.743 67.2019 173.576C67.0184 173.405 66.8435 173.224 66.678 173.033C66.5102 172.838 66.3457 172.629 66.1844 172.406C66.0255 172.183 65.8717 171.946 65.7229 171.696C65.5741 171.446 65.4311 171.183 65.294 170.907C65.1569 170.633 65.0272 170.348 64.905 170.052C64.7828 169.756 64.6685 169.452 64.562 169.14C64.4552 168.828 64.3563 168.508 64.2656 168.18C64.1749 167.853 64.0922 167.518 64.0176 167.175C63.939 166.82 63.8712 166.462 63.8143 166.099C63.7575 165.737 63.7089 165.371 63.6685 165.003C63.6294 164.635 63.6002 164.263 63.5809 163.889C63.5615 163.515 63.5518 163.139 63.5518 162.761C63.5534 162.385 63.5633 162.013 63.5815 161.643C63.5996 161.273 63.6288 160.908 63.6692 160.548C63.7079 160.186 63.7563 159.831 63.8144 159.481C63.8724 159.131 63.9402 158.787 64.0176 158.45C64.0922 158.123 64.1749 157.806 64.2656 157.498C64.3552 157.19 64.4538 156.892 64.5614 156.604C64.6691 156.315 64.7834 156.037 64.9044 155.769C65.0274 155.504 65.1577 155.247 65.2952 155C65.4327 154.752 65.5757 154.52 65.7241 154.303C65.8679 154.092 66.022 153.888 66.1856 153.694C66.3405 153.51 66.5053 153.336 66.6792 153.173C66.845 153.018 67.02 152.874 67.2031 152.744C67.3838 152.614 67.5733 152.5 67.7699 152.402C67.9583 152.307 68.1535 152.23 68.3536 152.17C68.7469 152.052 69.1562 152.008 69.5635 152.04" fill="#FFB6B6"/>
<path d="M145.87 154.059C144.983 155.645 143.586 156.826 141.943 157.377C140.301 157.928 138.527 157.811 136.959 157.048C135.392 156.285 134.139 154.929 133.439 153.237C132.739 151.546 132.641 149.637 133.163 147.873L106.03 87.8871L119.018 79.4146L142.45 143.131C142.54 143.169 142.628 143.208 142.715 143.249C142.802 143.29 142.888 143.333 142.974 143.378C143.06 143.422 143.146 143.469 143.231 143.519C143.316 143.568 143.4 143.62 143.484 143.674C145.08 144.711 146.228 146.387 146.675 148.334C147.123 150.281 146.833 152.34 145.871 154.058L145.87 154.059Z" fill="#FFB6B6"/>
<path d="M111.209 111.018L130.485 105.701C130.485 105.701 129.856 104.17 128.833 101.634C127.81 99.0978 126.381 95.561 124.773 91.5456C123.166 87.5302 121.382 83.0435 119.64 78.6086C117.898 74.1737 116.203 69.7919 114.776 65.9938C113.349 62.1958 111.728 59.9211 110.099 58.6462C108.75 57.5434 107.052 57.0575 105.373 57.2942C104.067 57.5034 102.82 58.0145 101.716 58.7922C101.193 59.1422 100.701 59.5436 100.248 59.9913L95.7784 68.7373L111.209 111.018Z" fill="#CCCCCC"/>
<path d="M266.325 66.0551L256.601 54.1799L257.719 52.7794L265.72 62.5314L278.675 30.3487L280.32 31.4498L266.325 66.0551Z" fill="#F75D77"/>
<path d="M265.471 106.267C265.938 106.304 266.402 106.37 266.862 106.463C267.325 106.556 267.783 106.677 268.234 106.825C268.691 106.975 269.14 107.152 269.58 107.354C270.03 107.562 270.47 107.794 270.897 108.051C271.315 108.304 271.724 108.579 272.123 108.876C272.522 109.174 272.91 109.493 273.286 109.835C273.662 110.175 274.027 110.538 274.381 110.924C274.734 111.31 275.075 111.717 275.403 112.145C275.731 112.573 276.042 113.016 276.335 113.475C276.629 113.933 276.904 114.406 277.162 114.892C277.416 115.38 277.655 115.88 277.877 116.394C278.098 116.908 278.3 117.434 278.481 117.971C278.671 118.529 278.836 119.093 278.978 119.662C279.12 120.231 279.238 120.805 279.333 121.384C279.428 121.963 279.5 122.546 279.547 123.133C279.595 123.72 279.619 124.309 279.619 124.9C279.619 125.492 279.595 126.076 279.547 126.652C279.5 127.228 279.428 127.796 279.333 128.354C279.238 128.913 279.12 129.461 278.978 130C278.836 130.538 278.671 131.066 278.483 131.582C278.3 132.081 278.099 132.563 277.878 133.029C277.661 133.491 277.422 133.94 277.162 134.375C276.907 134.803 276.631 135.216 276.336 135.612C276.044 136.007 275.732 136.384 275.403 136.743C275.079 137.096 274.738 137.43 274.381 137.743C274.031 138.05 273.665 138.335 273.286 138.598C272.537 139.116 271.735 139.541 270.896 139.863C270.037 140.194 269.143 140.412 268.235 140.514C267.779 140.565 267.321 140.586 266.863 140.579C266.398 140.572 265.934 140.537 265.472 140.473C265.006 140.409 264.544 140.318 264.088 140.199C263.63 140.08 263.179 139.934 262.736 139.762C262.288 139.588 261.849 139.389 261.42 139.165C260.984 138.937 260.558 138.686 260.145 138.411C259.743 138.141 259.352 137.852 258.97 137.543C258.589 137.234 258.22 136.905 257.863 136.555C257.506 136.205 257.161 135.836 256.828 135.448C256.495 135.06 256.175 134.653 255.868 134.227C255.56 133.801 255.269 133.363 254.996 132.911C254.724 132.46 254.468 131.997 254.23 131.522C253.992 131.047 253.772 130.56 253.57 130.063C253.367 129.566 253.183 129.058 253.016 128.54C252.844 128.003 252.693 127.462 252.563 126.917C252.434 126.371 252.326 125.822 252.239 125.269C252.153 124.715 252.088 124.158 252.044 123.599C252.001 123.04 251.979 122.478 251.979 121.914C251.979 121.349 252.001 120.792 252.044 120.242C252.087 119.692 252.152 119.149 252.239 118.615C252.325 118.081 252.433 117.555 252.563 117.037C252.693 116.519 252.844 116.01 253.016 115.512C253.184 115.029 253.368 114.561 253.57 114.107C253.774 113.655 253.995 113.216 254.233 112.791C254.704 111.951 255.252 111.163 255.868 110.439C256.171 110.083 256.49 109.745 256.825 109.424C257.155 109.11 257.501 108.815 257.86 108.541C258.217 108.27 258.586 108.019 258.968 107.792C259.35 107.564 259.743 107.36 260.145 107.18C260.977 106.807 261.846 106.542 262.735 106.389C263.183 106.312 263.635 106.264 264.087 106.244C264.549 106.224 265.011 106.232 265.471 106.269" fill="#FFB6B6"/>
<path d="M265.471 167.457C265.938 167.494 266.402 167.559 266.862 167.652C267.325 167.746 267.783 167.866 268.234 168.014C268.691 168.165 269.14 168.341 269.58 168.544C270.03 168.751 270.47 168.984 270.897 169.241C271.315 169.494 271.724 169.769 272.123 170.066C272.522 170.363 272.91 170.683 273.286 171.024C273.662 171.365 274.027 171.728 274.381 172.114C274.734 172.5 275.075 172.907 275.403 173.334C275.731 173.762 276.042 174.206 276.335 174.664C276.629 175.123 276.904 175.596 277.162 176.082C277.416 176.569 277.655 177.07 277.877 177.584C278.098 178.098 278.3 178.623 278.481 179.161C278.671 179.719 278.836 180.282 278.978 180.852C279.12 181.421 279.238 181.995 279.333 182.574C279.428 183.153 279.5 183.736 279.547 184.323C279.595 184.909 279.619 185.498 279.619 186.09C279.619 186.681 279.595 187.265 279.547 187.842C279.5 188.418 279.428 188.985 279.333 189.544C279.238 190.102 279.12 190.651 278.978 191.189C278.836 191.728 278.671 192.255 278.483 192.772C278.3 193.271 278.099 193.753 277.878 194.219C277.661 194.68 277.422 195.13 277.162 195.565C276.907 195.992 276.631 196.405 276.336 196.802C276.044 197.196 275.732 197.574 275.403 197.933C275.079 198.286 274.738 198.619 274.381 198.933C274.031 199.239 273.665 199.525 273.286 199.787C272.537 200.306 271.735 200.731 270.896 201.053C270.037 201.383 269.143 201.602 268.235 201.704C267.779 201.754 267.321 201.776 266.863 201.769C266.398 201.762 265.934 201.726 265.472 201.663C265.006 201.599 264.544 201.507 264.088 201.389C263.63 201.269 263.179 201.124 262.736 200.952C262.288 200.778 261.849 200.579 261.42 200.355C260.984 200.127 260.558 199.875 260.145 199.601C259.743 199.331 259.352 199.042 258.97 198.733C258.589 198.424 258.22 198.094 257.863 197.745C257.506 197.395 257.161 197.026 256.828 196.638C256.495 196.25 256.175 195.843 255.868 195.417C255.56 194.991 255.269 194.553 254.996 194.101C254.724 193.65 254.468 193.187 254.23 192.711C253.992 192.236 253.772 191.75 253.57 191.253C253.367 190.755 253.183 190.248 253.016 189.729C252.844 189.193 252.693 188.652 252.563 188.107C252.434 187.561 252.326 187.012 252.239 186.458C252.153 185.905 252.088 185.348 252.044 184.789C252.001 184.229 251.979 183.667 251.979 183.103C251.979 182.539 252.001 181.982 252.044 181.432C252.087 180.881 252.152 180.339 252.239 179.804C252.325 179.271 252.433 178.745 252.563 178.226C252.693 177.708 252.844 177.2 253.016 176.701C253.184 176.219 253.368 175.751 253.57 175.297C253.774 174.845 253.995 174.406 254.233 173.981C254.704 173.14 255.252 172.352 255.868 171.629C256.171 171.273 256.49 170.934 256.825 170.614C257.155 170.3 257.501 170.005 257.86 169.731C258.217 169.459 258.586 169.209 258.968 168.982C259.35 168.754 259.743 168.55 260.145 168.37C260.977 167.997 261.846 167.731 262.735 167.579C263.183 167.502 263.635 167.453 264.087 167.434C264.549 167.413 265.011 167.422 265.471 167.458" fill="#FFB6B6"/>
<path d="M265.468 39.9793C265.933 39.9672 266.397 39.9835 266.86 40.0281C267.32 40.0727 267.778 40.1457 268.231 40.2469C268.687 40.3493 269.136 40.4797 269.578 40.6374C270.026 40.7972 270.466 40.9838 270.895 41.1966C271.314 41.4047 271.724 41.6365 272.121 41.8912C272.522 42.1483 272.91 42.4277 273.284 42.7283C273.664 43.0337 274.029 43.3596 274.379 43.7047C274.734 44.0558 275.076 44.4279 275.403 44.8211C275.731 45.2147 276.042 45.6257 276.335 46.054C276.629 46.4823 276.904 46.9263 277.162 47.3858C277.418 47.8515 277.657 48.3286 277.878 48.8173C278.1 49.3059 278.302 49.8106 278.483 50.3314C278.671 50.8682 278.836 51.4139 278.978 51.9685C279.12 52.5232 279.238 53.085 279.333 53.6539C279.428 54.2245 279.5 54.8 279.547 55.3802C279.595 55.9604 279.619 56.5463 279.619 57.1378C279.619 57.7284 279.595 58.3143 279.547 58.8953C279.5 59.4764 279.428 60.0512 279.333 60.6197C279.238 61.1882 279.12 61.7491 278.978 62.3025C278.836 62.8558 278.671 63.4004 278.483 63.9363C278.3 64.4541 278.099 64.9575 277.878 65.4466C277.657 65.9339 277.417 66.4067 277.16 66.865C276.902 67.3233 276.627 67.7653 276.333 68.191C276.04 68.618 275.73 69.0268 275.401 69.4174C275.073 69.8079 274.732 70.1768 274.379 70.524C274.031 70.8678 273.668 71.1924 273.289 71.4965C272.915 71.7944 272.527 72.071 272.126 72.3252C271.729 72.5771 271.32 72.8061 270.9 73.0113C270.471 73.2211 270.031 73.4048 269.583 73.5613C268.701 73.8685 267.789 74.0651 266.865 74.1472C265.94 74.2297 265.009 74.1994 264.091 74.0567C263.635 73.9859 263.184 73.8872 262.739 73.7612C262.292 73.6347 261.853 73.4812 261.423 73.3016C260.988 73.12 260.562 72.9129 260.148 72.6813C259.744 72.4555 259.351 72.2076 258.971 71.9385C258.588 71.6677 258.218 71.3763 257.863 71.0656C257.506 70.7531 257.161 70.4203 256.828 70.067C256.495 69.7138 256.175 69.3401 255.869 68.9461C255.56 68.552 255.269 68.1437 254.996 67.721C254.724 67.2983 254.468 66.8617 254.23 66.4113C253.992 65.9608 253.771 65.4976 253.57 65.0215C253.368 64.5454 253.184 64.0578 253.016 63.5588C252.844 63.0406 252.693 62.5155 252.563 61.9835C252.434 61.4514 252.326 60.9133 252.239 60.3691C252.153 59.8227 252.088 59.272 252.044 58.717C252.001 58.1619 251.979 57.6023 251.979 57.0382C251.979 56.4744 252.001 55.9151 252.044 55.36C252.087 54.805 252.152 54.2558 252.239 53.7125C252.325 53.1687 252.433 52.631 252.563 52.0994C252.693 51.5678 252.844 51.0435 253.016 50.5267C253.184 50.0272 253.368 49.5401 253.57 49.0653C253.771 48.5905 253.993 48.1281 254.233 47.6781C254.471 47.232 254.727 46.798 254.999 46.3762C255.272 45.9544 255.562 45.5482 255.869 45.1576C256.173 44.7675 256.492 44.3966 256.825 44.0451C257.159 43.6936 257.504 43.3632 257.86 43.0537C258.216 42.7448 258.585 42.4554 258.967 42.1867C259.348 41.9201 259.741 41.6748 260.145 41.4518C260.559 41.2228 260.985 41.0185 261.42 40.8399C261.85 40.6632 262.289 40.5128 262.736 40.3894C263.181 40.2663 263.632 40.1707 264.087 40.103C264.546 40.0349 265.008 39.9949 265.472 39.9832L265.468 39.9793ZM265.472 38.3545C263.439 38.4144 261.446 38.9695 259.643 39.978C257.85 40.9867 256.261 42.368 254.968 44.0419C253.616 45.7864 252.563 47.7756 251.859 49.9168C250.349 54.5253 250.349 59.5504 251.859 64.159C252.564 66.3063 253.616 68.3025 254.968 70.0553C256.261 71.7372 257.85 73.1283 259.643 74.1492C261.445 75.1697 263.437 75.7388 265.472 75.8137C267.519 75.8859 269.555 75.4493 271.42 74.5378C273.302 73.6097 274.987 72.2732 276.367 70.6119C277.833 68.8527 278.98 66.814 279.75 64.601C281.417 59.7834 281.417 54.4812 279.75 49.6635C278.98 47.4439 277.833 45.3977 276.367 43.6292C274.987 41.9586 273.303 40.6107 271.42 39.6688C269.556 38.7444 267.52 38.2938 265.469 38.3519L265.472 38.3545Z" fill="#F75D77"/>
<path d="M92.0547 272.582L103.851 272.533L100.047 305.701L92.0547 305.744V272.582Z" fill="#FFB6B6"/>
<path d="M90.0169 314.09L115.773 313.943V313.593C115.773 312.882 115.709 312.172 115.581 311.474C115.327 310.098 114.823 308.789 114.096 307.624C113.357 306.443 112.411 305.43 111.31 304.641C110.224 303.864 109.005 303.326 107.725 303.06C107.075 302.926 106.415 302.86 105.754 302.865L90.0169 302.948V314.09Z" fill="#2F2E41"/>
<path d="M129.824 272.425L141.586 272.375L137.795 305.498L129.824 305.541V272.425Z" fill="#FFB6B6"/>
<path d="M127.792 313.874L153.48 313.729V313.379C153.48 312.669 153.416 311.96 153.288 311.263C153.035 309.889 152.532 308.582 151.807 307.418C151.071 306.239 150.127 305.226 149.028 304.438C147.945 303.662 146.729 303.126 145.452 302.861C144.804 302.727 144.146 302.661 143.486 302.665L127.792 302.748V313.874Z" fill="#2F2E41"/>
<path d="M130.324 136.858L150.103 216.289L142.863 292.429L126.833 292.905L130.323 224.155L110.325 189.845L105.988 293.373L91.4469 292.266L83.3579 203.254C80.6106 196.303 78.5957 189.043 77.3511 181.61C76.373 175.775 75.8974 169.856 75.9302 163.927C75.9467 159.935 76.2318 155.951 76.7831 152.003C76.9801 150.532 77.2468 149.073 77.5822 147.632L83.4795 141.198L130.324 136.858Z" fill="#2F2E41"/>
<path d="M104.118 150.143C107.444 150.143 110.565 150.028 113.395 149.801C116.286 149.588 119.162 149.181 122.006 148.582C124.427 148.095 126.785 147.296 129.029 146.202C130.835 145.363 132.405 144.029 133.584 142.334L133.719 142.123L128.313 104.262L122.483 61.6911C122.099 58.874 120.766 56.3071 118.738 54.479C116.709 52.6509 114.127 51.6893 111.482 51.7771L93.2239 52.3792C91.8547 52.4244 90.5079 52.7649 89.2633 53.3806C88.0187 53.9963 86.9016 54.8746 85.9783 55.9635C85.055 57.0524 84.3443 58.3297 83.8882 59.7197C83.4321 61.1097 83.24 62.5841 83.3233 64.0554L85.7201 106.392L76.8791 148.153L77.5052 148.247C77.7571 148.283 78.7274 148.421 80.2473 148.605C82.2338 148.845 84.2623 149.062 86.2762 149.248C89.1255 149.513 91.9137 149.721 94.5633 149.866C97.9234 150.051 101.144 150.14 104.118 150.143Z" fill="#1710A1"/>
<path d="M114.25 44.2542C114.255 44.2542 114.26 44.2542 114.264 44.2542C114.647 44.2539 115.027 44.1725 115.381 44.0145C115.734 43.8565 116.056 43.6251 116.326 43.3334C116.597 43.0418 116.812 42.6956 116.958 42.3147C117.104 41.9337 117.18 41.5255 117.179 41.1133V23.5961C117.182 20.4578 116.599 17.3508 115.463 14.46C113.24 8.81872 109.08 4.31828 103.849 1.89659C100.541 0.369657 96.9323 -0.250548 93.3467 0.0915072C89.7611 0.433562 86.3103 1.72719 83.3033 3.85658C80.2963 5.98596 77.827 8.8846 76.1165 12.2929C74.406 15.7013 73.5077 19.5129 73.5021 23.3865V40.9304C73.5016 41.3526 73.5802 41.7706 73.7332 42.1594C74.0329 42.9179 74.5934 43.5224 75.2975 43.8467C75.6588 44.0126 76.0474 44.0987 76.4402 44.0999L114.252 44.2542H114.25Z" fill="#2F2E41"/>
<path d="M85.48 17.5885C83.9569 20.5821 83.2924 23.9943 83.5703 27.3941C83.8482 30.7939 85.0562 34.0288 87.0415 36.6903C89.0269 39.3517 91.7007 41.3204 94.7252 42.3476C97.7497 43.3748 100.989 43.4144 104.035 42.4615C106.051 41.8379 107.933 40.7899 109.57 39.3782C111.208 37.9665 112.569 36.2191 113.574 34.2374C115.094 31.2451 115.756 27.8357 115.477 24.439C115.198 21.0423 113.992 17.8104 112.008 15.1509C110.025 12.4913 107.355 10.5232 104.334 9.49456C101.313 8.46594 98.0761 8.42292 95.0323 9.37091C93.0138 9.99222 91.1301 11.0386 89.4904 12.4493C87.8506 13.8601 86.4875 15.6072 85.48 17.5892V17.5885Z" fill="#FFB6B6"/>
<path d="M122.343 25.0218C122.345 22.5397 121.883 20.0825 120.985 17.7962C119.227 13.3353 115.937 9.77683 111.801 7.86262C109.678 6.8841 107.395 6.37494 105.086 6.36542L101.828 6.34784C101.791 6.34762 101.755 6.34751 101.718 6.34754C99.4622 6.34903 97.2285 6.82869 95.1447 7.75914C93.0609 8.68958 91.1678 10.0526 89.5735 11.7703C87.9792 13.4881 86.715 15.5269 85.8529 17.7704C84.9908 20.014 84.5478 22.4182 84.5492 24.846V25.1969L91.4416 25.2268L93.7917 18.1613L94.2618 25.2405L97.8217 25.2574L99.0067 21.6928L99.2444 25.262L122.34 25.3733L122.343 25.0218Z" fill="#2F2E41"/>
<path d="M150.09 61.8723C151.151 62.1515 152.142 62.6746 152.997 63.4055C153.665 63.9743 154.237 64.6635 154.686 65.4425C155.571 66.9842 155.961 68.7963 155.796 70.5999C155.713 71.5111 155.483 72.3997 155.117 73.2264C154.666 74.2566 154.018 75.1722 153.214 75.9128C152.41 76.6533 151.469 77.2019 150.454 77.5224C149.438 77.8429 148.371 77.9279 147.323 77.7719C146.275 77.616 145.269 77.2225 144.373 76.6175C144.307 76.5716 144.241 76.525 144.176 76.4777C144.111 76.4304 144.048 76.3822 143.985 76.333C143.923 76.2837 143.861 76.2337 143.8 76.1828C143.739 76.132 143.679 76.0804 143.619 76.0281L105.587 90.5944C104.416 91.0423 103.143 91.069 101.957 90.6705C100.772 90.2721 99.7383 89.4699 99.013 88.3849L89.9964 74.9506L100.898 67.0511L106.618 74.0444L141.425 66.5936C141.463 66.4966 141.502 66.4 141.543 66.3039C141.583 66.2079 141.626 66.1122 141.67 66.0169C141.715 65.922 141.761 65.8275 141.809 65.7335C141.857 65.6395 141.907 65.5463 141.96 65.4538C142.791 64.0099 144.024 62.8859 145.485 62.2425C146.945 61.5992 148.557 61.4696 150.09 61.8723Z" fill="#FFB6B6"/>
<path d="M106.005 69.6341C104.867 68.1061 103.276 66.1223 101.66 64.1547C100.044 62.1871 98.4039 60.237 97.1668 58.7781C95.9296 57.3193 95.0971 56.3524 95.0971 56.3524C93.9552 54.4944 92.2508 53.119 90.2735 52.4599C88.2961 51.8008 86.1676 51.8986 84.2497 52.7367C82.3317 53.5749 80.7425 55.1016 79.752 57.0576C78.7615 59.0136 78.4307 61.2783 78.8159 63.467C79.036 64.7271 79.4906 65.9261 80.1526 66.9921C80.1526 66.9921 81.3934 68.7394 83.2663 71.3473C85.1392 73.9553 87.6452 77.427 90.1729 80.8784C92.7005 84.3298 95.2529 87.7634 97.2209 90.2979C99.1889 92.8325 100.574 94.4698 100.769 94.3296L107.634 72.3714C107.829 72.2312 107.142 71.162 106.005 69.6341Z" fill="#1710A1"/>
<path d="M101.93 43.7021C102.038 44.2684 101.996 44.8559 101.809 45.3978C101.715 45.6752 101.586 45.937 101.425 46.1757C101.286 46.3791 101.126 46.5642 100.948 46.7271C100.419 47.208 99.7481 47.4704 99.0557 47.4672C99.0125 47.4668 98.9694 47.4655 98.9262 47.4633C98.8831 47.4611 98.8399 47.4579 98.7968 47.4535C98.7532 47.4496 98.7099 47.4444 98.6667 47.4379C98.6236 47.4314 98.5802 47.424 98.5367 47.4158L96.0904 46.9373L92.721 39.191V46.2864L81.599 44.1317V14.0219L100.244 14.1182L99.7834 14.6943C98.2534 16.6273 97.2487 18.9771 96.8798 21.485C96.5181 24.0252 96.5635 26.6133 97.0141 29.137C97.4521 31.6906 98.1169 34.1931 98.9994 36.6099C99.7709 38.7511 100.656 40.8426 101.651 42.8741C101.78 43.1347 101.874 43.4134 101.93 43.7021Z" fill="#2F2E41"/>
<path d="M231.078 315H0.604904C0.444458 315 0.290588 314.931 0.177155 314.809C0.0637054 314.687 -4.57764e-05 314.522 -4.57764e-05 314.349C-4.57764e-05 314.176 0.0637054 314.011 0.177155 313.889C0.290588 313.767 0.444458 313.698 0.604904 313.698H231.078C231.238 313.698 231.392 313.767 231.505 313.889C231.619 314.011 231.683 314.176 231.683 314.349C231.683 314.522 231.619 314.687 231.505 314.809C231.392 314.931 231.238 315 231.078 315Z" fill="#CACACA"/>
</g>
<defs>
<clipPath id="clip0_19_1258">
<rect width="281" height="315" fill="white" transform="matrix(-1 0 0 1 281 0)"/>
</clipPath>
</defs>
</svg>
