<svg width="564" height="440" viewBox="0 0 564 440" fill="none" xmlns="http://www.w3.org/2000/svg">
<g clip-path="url(#clip0_50_1347)">
<path d="M400.328 322.715H96.6092C93.903 322.712 91.3085 321.576 89.395 319.556C87.4814 317.537 86.405 314.799 86.4019 311.943V50.949C86.405 48.0931 87.4814 45.355 89.395 43.3355C91.3085 41.3161 93.903 40.1801 96.6092 40.1768H400.328C403.035 40.1801 405.629 41.3161 407.543 43.3355C409.456 45.355 410.533 48.0931 410.536 50.949V311.943C410.533 314.799 409.456 317.537 407.543 319.556C405.629 321.576 403.035 322.712 400.328 322.715Z" fill="#E6E6E6"/>
<path d="M103.496 47.8438C100.889 47.8469 98.3899 48.9413 96.5466 50.8866C94.7033 52.8319 93.6665 55.4695 93.6636 58.2205V304.677C93.6667 307.427 94.7036 310.065 96.5468 312.01C98.39 313.955 100.889 315.049 103.496 315.053H311.38C335.744 315.023 359.102 304.796 376.33 286.615C393.557 268.434 403.248 243.783 403.276 218.07V58.2205C403.273 55.4695 402.236 52.8319 400.393 50.8866C398.549 48.9413 396.05 47.8469 393.443 47.8438H103.496Z" fill="white"/>
<path d="M344.945 158.686H289.873C288.725 158.685 287.623 158.203 286.811 157.346C285.999 156.489 285.542 155.327 285.541 154.114V125.187C285.542 123.975 285.999 122.813 286.811 121.956C287.623 121.099 288.725 120.617 289.873 120.615H344.945C346.093 120.617 347.194 121.099 348.007 121.956C348.819 122.813 349.276 123.975 349.277 125.187V154.114C349.276 155.327 348.819 156.489 348.007 157.346C347.194 158.203 346.093 158.685 344.945 158.686Z" fill="#E6E6E6"/>
<path d="M335.897 173.839H298.799C298.258 173.84 297.722 173.728 297.222 173.51C296.722 173.292 296.268 172.972 295.885 172.569C295.502 172.165 295.198 171.686 294.991 171.159C294.784 170.631 294.677 170.066 294.677 169.495C294.677 168.924 294.784 168.359 294.991 167.831C295.198 167.304 295.502 166.825 295.885 166.422C296.268 166.018 296.722 165.698 297.222 165.48C297.722 165.262 298.258 165.151 298.799 165.151H335.897C336.988 165.153 338.033 165.611 338.804 166.426C339.575 167.24 340.008 168.344 340.008 169.495C340.008 170.646 339.575 171.75 338.804 172.565C338.033 173.379 336.988 173.837 335.897 173.839Z" fill="#E6E6E6"/>
<path d="M309.713 126.597C309.2 126.599 308.708 126.815 308.345 127.198C307.982 127.582 307.778 128.101 307.777 128.643V150.795C307.777 151.153 307.866 151.505 308.035 151.815C308.204 152.125 308.447 152.383 308.74 152.562C309.033 152.742 309.366 152.837 309.705 152.839C310.044 152.84 310.377 152.748 310.672 152.57L329.199 141.422C329.497 141.243 329.744 140.984 329.916 140.671C330.088 140.358 330.178 140.003 330.177 139.641C330.176 139.28 330.084 138.925 329.911 138.613C329.737 138.301 329.488 138.043 329.19 137.866L310.663 126.862C310.373 126.688 310.046 126.597 309.713 126.597Z" fill="white"/>
<path d="M535.616 404.773C534.767 403.633 533.614 402.788 532.305 402.346C530.996 401.905 529.592 401.887 528.274 402.296L527.986 402.386L525.4 413.04C525.013 411.452 524.184 407.868 523.661 404.359L523.616 404.069L523.359 404.188C520.656 405.449 518.115 407.065 515.796 408.999C511.688 412.477 508.347 416.857 506.004 421.835C503.662 426.813 502.375 432.27 502.233 437.826L502.229 438.031L502.224 438.159L502.566 438.031L509.913 435.259C513.166 435.562 516.442 435.094 519.502 433.89C522.561 432.686 525.327 430.776 527.598 428.3C530.567 424.996 532.603 420.746 534.571 416.634C535.148 415.436 535.738 414.2 536.342 413.011C537.015 411.719 537.306 410.243 537.177 408.775C537.047 407.306 536.504 405.912 535.616 404.773Z" fill="#1710A1"/>
<path d="M347.998 133.097C348.145 133.903 348.458 134.666 348.915 135.33C349.372 135.995 349.962 136.546 350.642 136.945C351.323 137.343 352.078 137.58 352.854 137.637C353.63 137.694 354.409 137.571 355.136 137.276L377.093 164.233L379.873 154.282L358.104 129.619C357.554 128.364 356.587 127.365 355.386 126.813C354.184 126.26 352.833 126.191 351.587 126.62C350.341 127.049 349.288 127.945 348.626 129.138C347.965 130.332 347.741 131.74 347.998 133.097Z" fill="#FFB8B8"/>
<path d="M436.491 431.586H429.225L425.768 402.007H436.493L436.491 431.586Z" fill="#FFB6B6"/>
<path d="M436.297 429.082L428.539 425.751L428.317 425.655L424.033 429.082C421.614 429.082 419.295 430.096 417.585 431.901C415.874 433.706 414.913 436.154 414.913 438.707V439.019H438.342V429.082H436.297Z" fill="#2F2E41"/>
<path d="M488.328 431.586H481.062L477.605 402.007H488.33L488.328 431.586Z" fill="#FFB6B6"/>
<path d="M488.135 429.082L480.376 425.751L480.154 425.655L475.87 429.082C473.452 429.082 471.132 430.096 469.422 431.901C467.712 433.706 466.751 436.154 466.75 438.707V439.019H490.18V429.082H488.135Z" fill="#2F2E41"/>
<path d="M471.179 254.951C471.179 254.951 480.293 264.958 480.293 273.18C480.293 281.402 478.014 292.692 480.293 295.163C482.571 297.634 485.42 300.64 482.002 304.247C478.584 307.854 476.875 309.657 479.154 312.062C481.432 314.466 480.293 356.548 480.293 356.548L492.255 413.057H477.185L458.077 356.548L452.95 309.657L436.37 354.744L438.201 413.542L422.446 413.057L415.924 350.536C415.924 350.536 425.608 291.064 423.899 289.539C422.19 288.015 423.899 284.938 423.899 284.938L428.456 262.165L471.179 254.951Z" fill="#1710A1"/>
<path d="M453.334 184.002C453.334 184.002 456.433 171.115 442.155 167.42C427.878 163.725 387.065 158.977 387.065 158.977L366.44 135.88L359.451 146.591L382.572 176.914L437.358 188.79L453.334 184.002Z" fill="#3F3D56"/>
<path d="M362.848 145.801C363.488 144.925 363.989 143.945 364.331 142.9L367.289 135.229L366.522 135.195C365.459 134.984 364.366 135.013 363.315 135.279C362.264 135.544 361.277 136.042 360.421 136.738C359.564 137.434 358.857 138.314 358.345 139.318C357.833 140.323 357.528 141.431 357.45 142.569C357.353 143.553 357.52 144.547 357.933 145.435C358.143 145.876 358.449 146.258 358.826 146.549C359.203 146.841 359.64 147.034 360.101 147.114C360.625 147.143 361.148 147.039 361.626 146.811C362.104 146.582 362.523 146.236 362.848 145.801Z" fill="#E6E6E6"/>
<path d="M425.547 265.237L423.838 278.31C423.838 278.31 427.256 282.184 428.965 281.7C430.674 281.216 436.94 278.397 436.94 278.397C436.94 278.397 444.345 282.668 448.332 283.152C452.32 283.637 473.396 280.731 473.966 279.279C474.536 277.826 481.156 272.14 481.156 272.14L478.523 255.553L425.547 265.237Z" fill="#E6E6E6"/>
<path d="M481.046 219.5C481.046 219.5 479.6 232.107 480.739 233.267C481.878 234.421 479.6 241.725 477.321 246.535C475.042 251.344 479.03 251.945 479.03 255.552C479.03 259.159 480.739 272.385 480.739 272.385C480.739 272.385 463.08 273.587 460.232 270.581C457.384 267.575 452.827 269.98 446.561 276.593C440.295 283.206 426.686 277.795 423.838 274.789C420.99 271.784 426.054 260.963 427.763 258.865C429.472 256.767 426.116 259.195 424.407 252.546C422.699 245.897 426.054 246.535 428.902 243.529C431.75 240.523 428.902 235.113 426.623 229.702C424.345 224.292 426.054 184.014 426.054 174.395C426.054 164.776 438.586 163.574 438.586 163.574L443.547 156.991L447.193 152.152L454.336 151.851L454.524 151.845L461.434 151.551L464.789 155.675L472.194 164.776L480.739 166.58C487.575 168.985 485.866 184.014 485.866 184.014L481.046 219.5Z" fill="#3F3D56"/>
<path d="M468.559 135.27C469.333 126.774 463.435 119.225 455.385 118.409C447.335 117.592 440.182 123.817 439.408 132.312C438.635 140.808 444.533 148.356 452.583 149.173C460.633 149.99 467.786 143.765 468.559 135.27Z" fill="#FFB6B6"/>
<path d="M470.962 128.592C466.934 125.985 467.451 119.17 463.57 116.79C461.641 115.616 459.472 114.952 457.248 114.854C455.024 114.755 452.81 115.225 450.795 116.224C448.062 114.99 444.787 115.974 442.601 118.203C440.414 120.431 439.23 123.719 438.882 127.025C438.63 130.346 438.856 133.689 439.552 136.939C439.769 135.634 439.986 134.328 440.203 133.022C444.051 132.134 447.899 131.247 451.747 130.359C450.725 131.328 449.703 132.297 448.681 133.266C453.909 134.522 459.394 133.617 464.009 130.736C469.035 133.114 468.124 138.453 463.713 145.539C465.422 148.545 475.551 131.562 470.962 128.592Z" fill="#2F2E41"/>
<path d="M464.789 155.675C464.756 155.703 464.722 155.729 464.687 155.753C463.48 156.513 462.099 156.908 460.693 156.895C458.855 157.057 457.029 156.453 455.607 155.212C454.86 154.466 451.893 156.042 449.944 156.913C447.901 157.807 445.61 157.835 443.547 156.991L447.193 152.152L453.201 150.746H454.702L461.434 151.551L464.789 155.675Z" fill="#E6E6E6"/>
<path d="M563.107 439.757L359.283 440C359.165 440.001 359.049 439.977 358.94 439.929C358.832 439.882 358.733 439.813 358.65 439.725C358.567 439.638 358.5 439.534 358.455 439.419C358.41 439.305 358.387 439.182 358.387 439.058C358.387 438.934 358.41 438.811 358.455 438.697C358.5 438.582 358.567 438.478 358.65 438.39C358.733 438.303 358.832 438.233 358.94 438.186C359.049 438.139 359.165 438.115 359.283 438.115L563.107 437.872C563.344 437.873 563.57 437.972 563.737 438.149C563.904 438.326 563.998 438.565 563.998 438.815C563.998 439.064 563.904 439.303 563.737 439.48C563.57 439.657 563.344 439.756 563.107 439.757Z" fill="#CACACA"/>
<path d="M319.056 123.24H317.556V10.0137H376.552V11.5968H319.056V123.24Z" fill="#3F3D56"/>
<path d="M422.433 0H382.681C380.095 0 377.615 1.08415 375.787 3.01394C373.958 4.94373 372.931 7.56108 372.931 10.2902C372.931 13.0193 373.958 15.6367 375.787 17.5665C377.615 19.4963 380.095 20.5804 382.681 20.5804H422.433C425.02 20.5804 427.5 19.4963 429.328 17.5665C431.157 15.6367 432.184 13.0193 432.184 10.2902C432.184 7.56108 431.157 4.94373 429.328 3.01394C427.5 1.08415 425.02 0 422.433 0Z" fill="#F75D77"/>
<path d="M317.435 133.599C322.383 133.599 326.395 129.366 326.395 124.143C326.395 118.921 322.383 114.688 317.435 114.688C312.487 114.688 308.475 118.921 308.475 124.143C308.475 129.366 312.487 133.599 317.435 133.599Z" fill="#F75D77"/>
<path d="M209.466 159.674L248.773 150.075L260.055 147.319C261.467 146.975 260.88 144.682 259.468 145.026L220.162 154.626L208.879 157.381C207.468 157.726 208.054 160.019 209.466 159.674V159.674Z" fill="#F2F2F2"/>
<path d="M250.055 134.675L271.098 144.89C271.816 145.152 272.488 145.536 273.089 146.028C273.67 146.628 273.247 147.205 272.773 147.728C271.357 149.124 269.861 150.427 268.294 151.63L259.329 159.322C258.204 160.287 259.792 161.972 260.907 161.016L268.715 154.316L272.619 150.967C273.725 150.018 275.071 149.049 275.516 147.537C276.449 144.361 272.764 143.098 270.716 142.104L261.553 137.656L251.201 132.63C249.896 131.997 248.741 134.036 250.055 134.675V134.675Z" fill="#F2F2F2"/>
<path d="M339.377 239.7C336.152 236.344 331.844 234.493 327.525 233.308C322.599 232.054 317.611 231.089 312.584 230.419C307.378 229.629 302.152 229.02 296.904 228.591C291.664 228.165 286.415 227.921 281.156 227.859C276.462 227.721 271.764 227.885 267.089 228.351C262.669 228.76 258.355 230.008 254.355 232.033C250.83 233.888 247.869 236.748 245.807 240.29C243.813 243.6 242.89 247.503 243.177 251.414C243.361 253.322 243.924 255.168 244.83 256.831C245.891 258.669 247.244 260.3 248.828 261.655C252.1 264.571 256.012 266.702 258.827 270.167C259.57 271.075 260.219 272.064 260.764 273.118C261.118 273.92 261.683 274.597 262.392 275.07C263.071 275.479 263.849 275.666 264.628 275.609C265.408 275.551 266.154 275.252 266.772 274.748C267.602 273.92 268.335 272.991 268.957 271.98L271.323 268.767C271.494 268.479 271.692 268.21 271.914 267.964C272.074 267.825 271.811 267.947 271.863 267.913C271.891 267.894 271.942 267.904 271.973 267.891C272.131 267.843 272.292 267.811 272.456 267.796C274.183 267.461 275.914 267.147 277.649 266.856C284.055 265.765 290.503 264.865 296.977 264.38C300.314 264.099 303.664 264.014 307.01 264.127C311.336 264.314 315.603 265.221 319.914 265.612C324.555 266.033 329.431 265.975 333.804 264.086C337.399 262.642 340.44 259.981 342.45 256.519C343.349 254.857 343.882 253.003 344.008 251.095C344.24 246.765 342.245 242.683 339.377 239.7Z" fill="#E6E6E6"/>
<path d="M323.687 243.554H267.552C267.391 243.554 267.232 243.521 267.084 243.456C266.935 243.392 266.8 243.297 266.686 243.177C266.573 243.057 266.482 242.915 266.421 242.759C266.359 242.602 266.328 242.434 266.328 242.265C266.328 242.095 266.359 241.927 266.421 241.771C266.482 241.614 266.573 241.472 266.686 241.352C266.8 241.232 266.935 241.137 267.084 241.073C267.232 241.008 267.391 240.975 267.552 240.976H323.687C324.011 240.976 324.322 241.111 324.551 241.353C324.78 241.595 324.908 241.923 324.908 242.265C324.908 242.606 324.78 242.934 324.551 243.176C324.322 243.418 324.011 243.554 323.687 243.554Z" fill="white"/>
<path d="M323.687 251.466H267.552C267.391 251.466 267.232 251.433 267.084 251.368C266.935 251.304 266.8 251.209 266.686 251.089C266.573 250.97 266.482 250.827 266.421 250.671C266.359 250.514 266.328 250.346 266.328 250.177C266.328 250.007 266.359 249.839 266.421 249.683C266.482 249.526 266.573 249.384 266.686 249.264C266.8 249.144 266.935 249.049 267.084 248.985C267.232 248.92 267.391 248.887 267.552 248.888H323.687C324.011 248.888 324.322 249.024 324.551 249.265C324.78 249.507 324.908 249.835 324.908 250.177C324.908 250.519 324.78 250.846 324.551 251.088C324.322 251.33 324.011 251.466 323.687 251.466Z" fill="white"/>
<path d="M274.094 259.378H267.552C267.228 259.378 266.917 259.242 266.688 259C266.459 258.759 266.331 258.431 266.331 258.089C266.331 257.747 266.459 257.419 266.688 257.177C266.917 256.936 267.228 256.8 267.552 256.8H274.094C274.418 256.8 274.728 256.936 274.957 257.177C275.186 257.419 275.315 257.747 275.315 258.089C275.315 258.431 275.186 258.759 274.957 259C274.728 259.242 274.418 259.378 274.094 259.378Z" fill="white"/>
<path d="M263.951 290.295C266.818 290.295 269.142 287.842 269.142 284.816C269.142 281.791 266.818 279.338 263.951 279.338C261.084 279.338 258.76 281.791 258.76 284.816C258.76 287.842 261.084 290.295 263.951 290.295Z" fill="#E6E6E6"/>
<path d="M269.408 297.867H267.908V358.851H318.653V357.268H269.408V297.867Z" fill="#3F3D56"/>
<path d="M374.287 358.574C374.284 355.846 373.256 353.23 371.428 351.301C369.6 349.372 367.121 348.287 364.536 348.284H324.784C322.198 348.284 319.718 349.368 317.889 351.298C316.06 353.228 315.033 355.845 315.033 358.574C315.033 361.304 316.06 363.921 317.889 365.851C319.718 367.78 322.198 368.865 324.784 368.865H364.536C367.121 368.862 369.6 367.777 371.428 365.848C373.256 363.919 374.284 361.303 374.287 358.574Z" fill="#F75D77"/>
<path d="M267.614 302.462C272.562 302.462 276.574 298.229 276.574 293.007C276.574 287.784 272.562 283.551 267.614 283.551C262.665 283.551 258.654 287.784 258.654 293.007C258.654 298.229 262.665 302.462 267.614 302.462Z" fill="#F75D77"/>
<path d="M189.267 157.221H142.114C139.925 157.218 137.827 156.299 136.279 154.666C134.731 153.032 133.86 150.818 133.858 148.507V115.711C133.86 113.401 134.731 111.187 136.279 109.553C137.827 107.92 139.925 107.001 142.114 106.998H189.267C191.456 107.001 193.554 107.92 195.102 109.553C196.65 111.187 197.52 113.401 197.523 115.711V148.508C197.52 150.818 196.65 153.032 195.102 154.666C193.554 156.299 191.456 157.218 189.267 157.221Z" fill="#E6E6E6"/>
<path d="M195.908 186.768H135.405C135.031 186.768 134.672 186.611 134.407 186.331C134.142 186.052 133.994 185.673 133.994 185.278C133.994 184.883 134.142 184.504 134.407 184.224C134.672 183.945 135.031 183.788 135.405 183.788H195.908C196.283 183.788 196.642 183.945 196.906 184.224C197.171 184.504 197.32 184.883 197.32 185.278C197.32 185.673 197.171 186.052 196.906 186.331C196.642 186.611 196.283 186.768 195.908 186.768Z" fill="#E6E6E6"/>
<path d="M195.908 178.254H135.405C135.031 178.254 134.672 178.097 134.407 177.818C134.142 177.538 133.994 177.159 133.994 176.764C133.994 176.369 134.142 175.99 134.407 175.711C134.672 175.431 135.031 175.274 135.405 175.274H195.908C196.283 175.274 196.642 175.431 196.906 175.711C197.171 175.99 197.32 176.369 197.32 176.764C197.32 177.159 197.171 177.538 196.906 177.818C196.642 178.097 196.283 178.254 195.908 178.254Z" fill="#E6E6E6"/>
<path d="M195.908 195.281H135.405C135.031 195.281 134.672 195.125 134.407 194.845C134.142 194.566 133.994 194.187 133.994 193.792C133.994 193.396 134.142 193.018 134.407 192.738C134.672 192.459 135.031 192.302 135.405 192.302H195.908C196.283 192.302 196.642 192.459 196.906 192.738C197.171 193.018 197.32 193.396 197.32 193.792C197.32 194.187 197.171 194.566 196.906 194.845C196.642 195.125 196.283 195.281 195.908 195.281Z" fill="#E6E6E6"/>
<path d="M195.908 203.795H135.405C135.031 203.795 134.672 203.638 134.407 203.359C134.142 203.079 133.994 202.7 133.994 202.305C133.994 201.91 134.142 201.531 134.407 201.252C134.672 200.972 135.031 200.815 135.405 200.815H195.908C196.283 200.815 196.642 200.972 196.906 201.252C197.171 201.531 197.32 201.91 197.32 202.305C197.32 202.7 197.171 203.079 196.906 203.359C196.642 203.638 196.283 203.795 195.908 203.795Z" fill="#E6E6E6"/>
<path d="M195.908 212.309H135.405C135.031 212.309 134.672 212.152 134.407 211.872C134.142 211.593 133.994 211.214 133.994 210.819C133.994 210.424 134.142 210.045 134.407 209.765C134.672 209.486 135.031 209.329 135.405 209.329H195.908C196.283 209.329 196.642 209.486 196.906 209.765C197.171 210.045 197.32 210.424 197.32 210.819C197.32 211.214 197.171 211.593 196.906 211.872C196.642 212.152 196.283 212.309 195.908 212.309Z" fill="#E6E6E6"/>
<path d="M195.908 220.822H135.405C135.031 220.822 134.672 220.665 134.407 220.385C134.142 220.106 133.994 219.727 133.994 219.332C133.994 218.937 134.142 218.558 134.407 218.278C134.672 217.999 135.031 217.842 135.405 217.842H195.908C196.283 217.842 196.642 217.999 196.906 218.278C197.171 218.558 197.32 218.937 197.32 219.332C197.32 219.727 197.171 220.106 196.906 220.385C196.642 220.665 196.283 220.822 195.908 220.822Z" fill="#E6E6E6"/>
<path d="M162.632 201.297H164.132V262.281H55.6328V260.697H162.632V201.297Z" fill="#3F3D56"/>
<path d="M9.75056 272.294H49.5028C52.0889 272.294 54.5689 271.21 56.3975 269.28C58.2261 267.351 59.2534 264.733 59.2534 262.004C59.2534 259.275 58.2261 256.658 56.3975 254.728C54.5689 252.798 52.0889 251.714 49.5028 251.714H9.75056C7.16455 251.714 4.68446 252.798 2.85588 254.728C1.02729 256.658 0 259.275 0 262.004C0 264.733 1.02729 267.351 2.85588 269.28C4.68446 271.21 7.16455 272.294 9.75056 272.294Z" fill="#F75D77"/>
<path d="M164.426 205.892C169.375 205.892 173.386 201.659 173.386 196.436C173.386 191.214 169.375 186.98 164.426 186.98C159.478 186.98 155.466 191.214 155.466 196.436C155.466 201.659 159.478 205.892 164.426 205.892Z" fill="#F75D77"/>
<path d="M210.738 199.065C223.893 202.015 220.547 202.591 233.701 205.541L245.029 208.082C246.446 208.4 246.834 206.061 245.416 205.743C232.262 202.792 235.608 202.216 222.453 199.266L211.125 196.725C209.708 196.407 209.32 198.747 210.738 199.065Z" fill="#F2F2F2"/>
<path d="M241.037 192.16L256.008 210.811C256.554 211.369 257.009 212.017 257.356 212.731C257.642 213.534 257.027 213.868 256.388 214.131C254.545 214.763 252.668 215.276 250.766 215.666L239.559 218.633C238.153 219.005 238.916 221.241 240.31 220.872L250.07 218.288L254.95 216.996C256.333 216.63 257.941 216.353 258.95 215.182C261.069 212.721 258.236 209.931 256.779 208.116L250.259 199.994L242.894 190.819C241.966 189.662 240.101 190.994 241.037 192.16V192.16Z" fill="#F2F2F2"/>
<path d="M493.587 308.891C505.094 308.891 514.423 299.046 514.423 286.902C514.423 274.757 505.094 264.912 493.587 264.912C482.079 264.912 472.75 274.757 472.75 286.902C472.75 299.046 482.079 308.891 493.587 308.891Z" fill="#F75D77"/>
<path d="M490.744 298.346C490.384 298.346 490.029 298.258 489.708 298.088C489.386 297.918 489.106 297.672 488.89 297.368L483.206 289.369C483.023 289.112 482.89 288.82 482.815 288.508C482.739 288.197 482.722 287.873 482.765 287.555C482.809 287.237 482.911 286.931 483.066 286.655C483.221 286.379 483.426 286.137 483.669 285.945C483.913 285.752 484.19 285.612 484.485 285.532C484.78 285.452 485.086 285.435 485.388 285.48C485.689 285.525 485.979 285.633 486.241 285.797C486.503 285.96 486.731 286.177 486.914 286.434L490.633 291.666L500.185 276.546C500.353 276.279 500.571 276.049 500.823 275.871C501.076 275.692 501.36 275.568 501.659 275.505C501.957 275.442 502.264 275.441 502.563 275.504C502.862 275.566 503.146 275.69 503.399 275.868C503.652 276.046 503.87 276.275 504.039 276.542C504.208 276.809 504.326 277.108 504.386 277.423C504.446 277.738 504.446 278.063 504.387 278.378C504.328 278.693 504.211 278.993 504.042 279.26L492.673 297.257C492.467 297.583 492.191 297.851 491.866 298.041C491.542 298.23 491.179 298.335 490.809 298.346C490.787 298.346 490.766 298.346 490.744 298.346Z" fill="white"/>
<path d="M483.066 274.126C483.737 273.709 484.313 273.143 484.754 272.466C485.195 271.789 485.49 271.019 485.618 270.209C485.746 269.398 485.705 268.569 485.496 267.777C485.288 266.986 484.917 266.252 484.411 265.629L501.141 234.775L491.325 235.338L476.581 265.237C475.644 266.204 475.076 267.499 474.984 268.879C474.892 270.258 475.283 271.625 476.082 272.721C476.882 273.817 478.034 274.565 479.321 274.824C480.608 275.083 481.941 274.834 483.066 274.126H483.066Z" fill="#FFB8B8"/>
<path d="M464.222 165.979C464.222 165.979 481.941 159.968 486.498 174.396C491.055 188.824 506.375 227.899 506.375 227.899L489.916 263.368L482.511 254.952L490.425 230.304L467.639 194.234L464.222 165.979Z" fill="#3F3D56"/>
<path d="M490.48 259.745C489.947 258.793 489.27 257.938 488.477 257.215L482.823 251.473L482.509 252.213C481.929 253.176 481.549 254.258 481.394 255.387C481.238 256.516 481.31 257.667 481.605 258.764C481.9 259.862 482.412 260.881 483.106 261.756C483.801 262.63 484.663 263.34 485.635 263.838C486.466 264.298 487.402 264.502 488.337 264.427C488.802 264.384 489.252 264.226 489.648 263.964C490.045 263.703 490.377 263.346 490.618 262.924C490.838 262.421 490.94 261.87 490.916 261.317C490.893 260.764 490.743 260.225 490.48 259.745Z" fill="#E6E6E6"/>
</g>
<defs>
<clipPath id="clip0_50_1347">
<rect width="564" height="440" fill="white"/>
</clipPath>
</defs>
</svg>
